# xmcd
#
# Track frame offsets:
#	150
#	17460
#	47041
#	75268
#	104257
#	124302
#	150265
#	176900
#
# Disc length: 2660 seconds
#
# Revision: 1
# Processed by: cddbd v1.5.1PL2 Copyright (c) Steve Scherf et al.
# Submitted via: EasyCDDAExtractor 9.0.0.1
#
DISCID=530a6208
DTITLE=Saxon - Le Zenith Paris 02-11-86 Disc 2
DYEAR=1986
DGENRE=Hard Rock
TTITLE0=This Town Rocks 
TTITLE1=Drum Solo 
TTITLE2=Wheels Of Steel
TTITLE3=Party Til You Puke
TTITLE4=Princess Of The Night
TTITLE5=Crusader
TTITLE6=Northern Lady
TTITLE7=Motorcycle Man
EXTD=
EXTT0=
EXTT1=
EXTT2=
EXTT3=
EXTT4=
EXTT5=
EXTT6=
EXTT7=
PLAYORDER=
